# xmcd CD database file
#
# Track frame offsets:
#	183
#	10815
#	22030
#	35708
#	48773
#	61083
#	71590
#	82128
#	96233
#	108183
#	120070
#	132240
#	145033
#	159083
#	170858
#	179920
#
# Disc length: 2584 seconds
#
# Revision: 0
# Processed by: cddbd v1.4b41PL2 Copyright (c) Steve Scherf et al.
# Submitted via: Feurio! 1.61.1ß - http://www.feurio.com
#
DISCID=d30a1610
DTITLE=Ray Charles - The Love Songs
DYEAR=1900
DGENRE=
TTITLE0=I Wonder Who's Kissing Her Now
TTITLE1=Here I Am
TTITLE2=Oh Baby
TTITLE3=I Used To Be So Happy
TTITLE4=Honey Honey
TTITLE5=The Ego Song
TTITLE6=Hey Now
TTITLE7=Late In The Evening Blues
TTITLE8=I Live Only For You
TTITLE9=St. Pete's Blues
TTITLE10=I'm Glad For Your Sake
TTITLE11=I'm Just A lonely Boy
TTITLE12=All Night Long
TTITLE13=See See Rider
TTITLE14=All To Myself Alone
TTITLE15=Blues Is My Middle Name
EXTD=
EXTT0=
EXTT1=
EXTT2=
EXTT3=
EXTT4=
EXTT5=
EXTT6=
EXTT7=
EXTT8=
EXTT9=
EXTT10=
EXTT11=
EXTT12=
EXTT13=
EXTT14=
EXTT15=
PLAYORDER=
